<svg width="175" height="192" viewBox="0 0 175 192" fill="none" xmlns="http://www.w3.org/2000/svg">
<g filter="url(#filter0_d_5_437)">
<rect x="5" y="5" width="165" height="182" rx="10" fill="#D9D9D9"/>
</g>
<path d="M66.1136 92.2727V101H65.0568V92.2727H66.1136ZM68.2326 92.2727H69.494L72.4599 99.517H72.5621L75.5281 92.2727H76.7894V101H75.8008V94.3693H75.7156L72.9883 101H72.0337L69.3065 94.3693H69.2212V101H68.2326V92.2727ZM79.2663 101H78.1584L81.3629 92.2727H82.4538L85.6584 101H84.5504L81.9425 93.6534H81.8743L79.2663 101ZM79.6754 97.5909H84.1413V98.5284H79.6754V97.5909ZM92.5735 95C92.4798 94.7131 92.3562 94.456 92.2028 94.2287C92.0522 93.9986 91.8718 93.8026 91.6616 93.6406C91.4542 93.4787 91.2184 93.3551 90.9542 93.2699C90.69 93.1847 90.4002 93.142 90.0849 93.142C89.5678 93.142 89.0977 93.2756 88.6744 93.5426C88.2511 93.8097 87.9144 94.2031 87.6644 94.723C87.4144 95.2429 87.2894 95.8807 87.2894 96.6364C87.2894 97.392 87.4158 98.0298 87.6687 98.5497C87.9215 99.0696 88.2638 99.4631 88.6957 99.7301C89.1275 99.9972 89.6133 100.131 90.1531 100.131C90.6531 100.131 91.0934 100.024 91.4741 99.8111C91.8576 99.5952 92.1559 99.2912 92.369 98.8991C92.5849 98.5043 92.6928 98.0398 92.6928 97.5057L93.0167 97.5739H90.3917V96.6364H93.7156V97.5739C93.7156 98.2926 93.5621 98.9176 93.2553 99.4489C92.9513 99.9801 92.5309 100.392 91.994 100.685C91.4599 100.974 90.8462 101.119 90.1531 101.119C89.3803 101.119 88.7013 100.938 88.1161 100.574C87.5337 100.21 87.0792 99.6932 86.7525 99.0227C86.4286 98.3523 86.2667 97.5568 86.2667 96.6364C86.2667 95.946 86.359 95.3253 86.5437 94.7741C86.7312 94.2202 86.9954 93.7486 87.3363 93.3594C87.6772 92.9702 88.0806 92.6719 88.5465 92.4645C89.0124 92.2571 89.5252 92.1534 90.0849 92.1534C90.5451 92.1534 90.9741 92.223 91.3718 92.3622C91.7724 92.4986 92.1289 92.6932 92.4414 92.946C92.7567 93.196 93.0195 93.4957 93.2298 93.8452C93.44 94.1918 93.5849 94.5767 93.6644 95H92.5735ZM95.5256 101V92.2727H100.793V93.2102H96.5824V96.1591H100.52V97.0966H96.5824V100.062H100.861V101H95.5256ZM108.987 92.2727V101H107.93V93.3807H107.879L105.749 94.7955V93.7216L107.93 92.2727H108.987Z" fill="black"/>
<defs>
<filter id="filter0_d_5_437" x="0" y="0" width="175" height="192" filterUnits="userSpaceOnUse" color-interpolation-filters="sRGB">
<feFlood flood-opacity="0" result="BackgroundImageFix"/>
<feColorMatrix in="SourceAlpha" type="matrix" values="0 0 0 0 0 0 0 0 0 0 0 0 0 0 0 0 0 0 127 0" result="hardAlpha"/>
<feMorphology radius="5" operator="dilate" in="SourceAlpha" result="effect1_dropShadow_5_437"/>
<feOffset/>
<feComposite in2="hardAlpha" operator="out"/>
<feColorMatrix type="matrix" values="0 0 0 0 0.85098 0 0 0 0 0.85098 0 0 0 0 0.85098 0 0 0 0.25 0"/>
<feBlend mode="normal" in2="BackgroundImageFix" result="effect1_dropShadow_5_437"/>
<feBlend mode="normal" in="SourceGraphic" in2="effect1_dropShadow_5_437" result="shape"/>
</filter>
</defs>
</svg>
