<svg width="175" height="192" viewBox="0 0 175 192" fill="none" xmlns="http://www.w3.org/2000/svg">
<g filter="url(#filter0_d_5_437)">
<rect x="5" y="5" width="165" height="182" rx="10" fill="#D9D9D9"/>
</g>
<path d="M65.1136 92.2727V101H64.0568V92.2727H65.1136ZM67.2326 92.2727H68.494L71.4599 99.517H71.5621L74.5281 92.2727H75.7894V101H74.8008V94.3693H74.7156L71.9883 101H71.0337L68.3065 94.3693H68.2212V101H67.2326V92.2727ZM78.2663 101H77.1584L80.3629 92.2727H81.4538L84.6584 101H83.5504L80.9425 93.6534H80.8743L78.2663 101ZM78.6754 97.5909H83.1413V98.5284H78.6754V97.5909ZM91.5735 95C91.4798 94.7131 91.3562 94.456 91.2028 94.2287C91.0522 93.9986 90.8718 93.8026 90.6616 93.6406C90.4542 93.4787 90.2184 93.3551 89.9542 93.2699C89.69 93.1847 89.4002 93.142 89.0849 93.142C88.5678 93.142 88.0977 93.2756 87.6744 93.5426C87.2511 93.8097 86.9144 94.2031 86.6644 94.723C86.4144 95.2429 86.2894 95.8807 86.2894 96.6364C86.2894 97.392 86.4158 98.0298 86.6687 98.5497C86.9215 99.0696 87.2638 99.4631 87.6957 99.7301C88.1275 99.9972 88.6133 100.131 89.1531 100.131C89.6531 100.131 90.0934 100.024 90.4741 99.8111C90.8576 99.5952 91.1559 99.2912 91.369 98.8991C91.5849 98.5043 91.6928 98.0398 91.6928 97.5057L92.0167 97.5739H89.3917V96.6364H92.7156V97.5739C92.7156 98.2926 92.5621 98.9176 92.2553 99.4489C91.9513 99.9801 91.5309 100.392 90.994 100.685C90.4599 100.974 89.8462 101.119 89.1531 101.119C88.3803 101.119 87.7013 100.938 87.1161 100.574C86.5337 100.21 86.0792 99.6932 85.7525 99.0227C85.4286 98.3523 85.2667 97.5568 85.2667 96.6364C85.2667 95.946 85.359 95.3253 85.5437 94.7741C85.7312 94.2202 85.9954 93.7486 86.3363 93.3594C86.6772 92.9702 87.0806 92.6719 87.5465 92.4645C88.0124 92.2571 88.5252 92.1534 89.0849 92.1534C89.5451 92.1534 89.9741 92.223 90.3718 92.3622C90.7724 92.4986 91.1289 92.6932 91.4414 92.946C91.7567 93.196 92.0195 93.4957 92.2298 93.8452C92.44 94.1918 92.5849 94.5767 92.6644 95H91.5735ZM94.5256 101V92.2727H99.7926V93.2102H95.5824V96.1591H99.5199V97.0966H95.5824V100.062H99.8608V101H94.5256ZM104.919 101V100.233L107.8 97.0795C108.138 96.7102 108.416 96.3892 108.635 96.1165C108.854 95.8409 109.016 95.5824 109.121 95.3409C109.229 95.0966 109.283 94.8409 109.283 94.5739C109.283 94.267 109.209 94.0014 109.061 93.777C108.916 93.5526 108.717 93.3793 108.464 93.2571C108.212 93.1349 107.928 93.0739 107.612 93.0739C107.277 93.0739 106.984 93.1435 106.734 93.2827C106.487 93.419 106.295 93.6108 106.159 93.858C106.026 94.1051 105.959 94.3949 105.959 94.7273H104.953C104.953 94.2159 105.071 93.767 105.307 93.3807C105.543 92.9943 105.864 92.6932 106.27 92.4773C106.679 92.2614 107.138 92.1534 107.646 92.1534C108.158 92.1534 108.611 92.2614 109.006 92.4773C109.401 92.6932 109.71 92.9844 109.935 93.3509C110.159 93.7173 110.271 94.125 110.271 94.5739C110.271 94.8949 110.213 95.2088 110.097 95.5156C109.983 95.8196 109.784 96.1591 109.5 96.5341C109.219 96.9062 108.828 97.3608 108.328 97.8977L106.368 99.9943V100.062H110.425V101H104.919Z" fill="black"/>
<defs>
<filter id="filter0_d_5_437" x="0" y="0" width="175" height="192" filterUnits="userSpaceOnUse" color-interpolation-filters="sRGB">
<feFlood flood-opacity="0" result="BackgroundImageFix"/>
<feColorMatrix in="SourceAlpha" type="matrix" values="0 0 0 0 0 0 0 0 0 0 0 0 0 0 0 0 0 0 127 0" result="hardAlpha"/>
<feMorphology radius="5" operator="dilate" in="SourceAlpha" result="effect1_dropShadow_5_437"/>
<feOffset/>
<feComposite in2="hardAlpha" operator="out"/>
<feColorMatrix type="matrix" values="0 0 0 0 0.85098 0 0 0 0 0.85098 0 0 0 0 0.85098 0 0 0 0.25 0"/>
<feBlend mode="normal" in2="BackgroundImageFix" result="effect1_dropShadow_5_437"/>
<feBlend mode="normal" in="SourceGraphic" in2="effect1_dropShadow_5_437" result="shape"/>
</filter>
</defs>
</svg>
