<svg width="175" height="192" viewBox="0 0 175 192" fill="none" xmlns="http://www.w3.org/2000/svg">
<g filter="url(#filter0_d_5_437)">
<rect x="5" y="5" width="165" height="182" rx="10" fill="#D9D9D9"/>
</g>
<path d="M65.1136 92.2727V101H64.0568V92.2727H65.1136ZM67.2326 92.2727H68.494L71.4599 99.517H71.5621L74.5281 92.2727H75.7894V101H74.8008V94.3693H74.7156L71.9883 101H71.0337L68.3065 94.3693H68.2212V101H67.2326V92.2727ZM78.2663 101H77.1584L80.3629 92.2727H81.4538L84.6584 101H83.5504L80.9425 93.6534H80.8743L78.2663 101ZM78.6754 97.5909H83.1413V98.5284H78.6754V97.5909ZM91.5735 95C91.4798 94.7131 91.3562 94.456 91.2028 94.2287C91.0522 93.9986 90.8718 93.8026 90.6616 93.6406C90.4542 93.4787 90.2184 93.3551 89.9542 93.2699C89.69 93.1847 89.4002 93.142 89.0849 93.142C88.5678 93.142 88.0977 93.2756 87.6744 93.5426C87.2511 93.8097 86.9144 94.2031 86.6644 94.723C86.4144 95.2429 86.2894 95.8807 86.2894 96.6364C86.2894 97.392 86.4158 98.0298 86.6687 98.5497C86.9215 99.0696 87.2638 99.4631 87.6957 99.7301C88.1275 99.9972 88.6133 100.131 89.1531 100.131C89.6531 100.131 90.0934 100.024 90.4741 99.8111C90.8576 99.5952 91.1559 99.2912 91.369 98.8991C91.5849 98.5043 91.6928 98.0398 91.6928 97.5057L92.0167 97.5739H89.3917V96.6364H92.7156V97.5739C92.7156 98.2926 92.5621 98.9176 92.2553 99.4489C91.9513 99.9801 91.5309 100.392 90.994 100.685C90.4599 100.974 89.8462 101.119 89.1531 101.119C88.3803 101.119 87.7013 100.938 87.1161 100.574C86.5337 100.21 86.0792 99.6932 85.7525 99.0227C85.4286 98.3523 85.2667 97.5568 85.2667 96.6364C85.2667 95.946 85.359 95.3253 85.5437 94.7741C85.7312 94.2202 85.9954 93.7486 86.3363 93.3594C86.6772 92.9702 87.0806 92.6719 87.5465 92.4645C88.0124 92.2571 88.5252 92.1534 89.0849 92.1534C89.5451 92.1534 89.9741 92.223 90.3718 92.3622C90.7724 92.4986 91.1289 92.6932 91.4414 92.946C91.7567 93.196 92.0195 93.4957 92.2298 93.8452C92.44 94.1918 92.5849 94.5767 92.6644 95H91.5735ZM94.5256 101V92.2727H99.7926V93.2102H95.5824V96.1591H99.5199V97.0966H95.5824V100.062H99.8608V101H94.5256ZM107.868 101.119C107.305 101.119 106.804 101.023 106.364 100.83C105.926 100.636 105.578 100.368 105.32 100.024C105.064 99.6776 104.925 99.2756 104.902 98.8182H105.976C105.999 99.0994 106.095 99.3423 106.266 99.5469C106.436 99.7486 106.659 99.9048 106.935 100.016C107.21 100.126 107.516 100.182 107.851 100.182C108.226 100.182 108.558 100.116 108.848 99.9858C109.138 99.8551 109.365 99.6733 109.53 99.4403C109.695 99.2074 109.777 98.9375 109.777 98.6307C109.777 98.3097 109.697 98.027 109.538 97.7827C109.379 97.5355 109.146 97.3423 108.839 97.2031C108.533 97.0639 108.158 96.9943 107.714 96.9943H107.016V96.0568H107.714C108.061 96.0568 108.365 95.9943 108.626 95.8693C108.891 95.7443 109.097 95.5682 109.244 95.3409C109.395 95.1136 109.47 94.8466 109.47 94.5398C109.47 94.2443 109.405 93.9872 109.274 93.7685C109.143 93.5497 108.959 93.3793 108.72 93.2571C108.484 93.1349 108.206 93.0739 107.885 93.0739C107.584 93.0739 107.3 93.1293 107.033 93.2401C106.768 93.348 106.553 93.5057 106.385 93.7131C106.217 93.9176 106.126 94.1648 106.112 94.4545H105.089C105.107 93.9972 105.244 93.5966 105.503 93.2528C105.761 92.9062 106.099 92.6364 106.517 92.4432C106.938 92.25 107.399 92.1534 107.902 92.1534C108.442 92.1534 108.905 92.2628 109.291 92.4815C109.678 92.6974 109.974 92.983 110.182 93.3381C110.389 93.6932 110.493 94.0767 110.493 94.4886C110.493 94.9801 110.364 95.3991 110.105 95.7457C109.849 96.0923 109.501 96.3324 109.061 96.4659V96.5341C109.612 96.625 110.043 96.8594 110.352 97.2372C110.662 97.6122 110.817 98.0767 110.817 98.6307C110.817 99.1051 110.688 99.5312 110.429 99.9091C110.173 100.284 109.824 100.58 109.381 100.795C108.938 101.011 108.433 101.119 107.868 101.119Z" fill="black"/>
<defs>
<filter id="filter0_d_5_437" x="0" y="0" width="175" height="192" filterUnits="userSpaceOnUse" color-interpolation-filters="sRGB">
<feFlood flood-opacity="0" result="BackgroundImageFix"/>
<feColorMatrix in="SourceAlpha" type="matrix" values="0 0 0 0 0 0 0 0 0 0 0 0 0 0 0 0 0 0 127 0" result="hardAlpha"/>
<feMorphology radius="5" operator="dilate" in="SourceAlpha" result="effect1_dropShadow_5_437"/>
<feOffset/>
<feComposite in2="hardAlpha" operator="out"/>
<feColorMatrix type="matrix" values="0 0 0 0 0.85098 0 0 0 0 0.85098 0 0 0 0 0.85098 0 0 0 0.25 0"/>
<feBlend mode="normal" in2="BackgroundImageFix" result="effect1_dropShadow_5_437"/>
<feBlend mode="normal" in="SourceGraphic" in2="effect1_dropShadow_5_437" result="shape"/>
</filter>
</defs>
</svg>
