<svg width="360" height="567" viewBox="0 0 360 567" fill="none" xmlns="http://www.w3.org/2000/svg">
<rect width="360" height="567" fill="#212121"/>
<g filter="url(#filter0_f_9_729)">
<circle cx="28.0747" cy="360.925" r="85.0747" fill="#7FCE84" fill-opacity="0.83"/>
</g>
<g filter="url(#filter1_f_9_729)">
<circle cx="394.668" cy="240.618" r="170.618" fill="#36853B" fill-opacity="0.52"/>
</g>
<g filter="url(#filter2_f_9_729)">
<circle cx="183.89" cy="317.408" r="79.9969" fill="#3D9542"/>
</g>
<g clip-path="url(#clip0_9_729)">
<g opacity="0.3">
<path d="M313.617 264.642H370.396V306.946H313.617V264.642ZM250.96 117.204H307.74V158.915H251.248V164.364H307.74V209.054H251.248V214.502H307.74V259.193H251.248V264.642H307.74V306.946H250.96V117.204ZM313.617 164.364H370.396V209.054H313.617V164.364ZM313.617 214.502H370.396V259.192H313.617V214.502ZM370.396 158.915H313.617V117.204H370.396V158.915ZM246.271 314.395H375.085V109.754H246.271V314.395Z" stroke="black" stroke-width="0.853263" stroke-miterlimit="10" stroke-linecap="round" stroke-linejoin="round"/>
<path d="M299.602 129.676L270.956 153.383" stroke="black" stroke-width="0.853263" stroke-miterlimit="10" stroke-linecap="round" stroke-linejoin="round"/>
<path d="M356.401 176.102L327.755 199.809" stroke="black" stroke-width="0.853263" stroke-miterlimit="10" stroke-linecap="round" stroke-linejoin="round"/>
<path d="M291.699 276.365L263.053 300.072" stroke="black" stroke-width="0.853263" stroke-miterlimit="10" stroke-linecap="round" stroke-linejoin="round"/>
<path d="M284.579 136.59L271.449 147.456" stroke="black" stroke-width="0.853263" stroke-miterlimit="10" stroke-linecap="round" stroke-linejoin="round"/>
<path d="M354.219 170.67L341.089 181.536" stroke="black" stroke-width="0.853263" stroke-miterlimit="10" stroke-linecap="round" stroke-linejoin="round"/>
<path d="M290.011 283.773L276.882 294.639" stroke="black" stroke-width="0.853263" stroke-miterlimit="10" stroke-linecap="round" stroke-linejoin="round"/>
<path d="M286.06 231.42L272.931 242.286" stroke="black" stroke-width="0.853263" stroke-miterlimit="10" stroke-linecap="round" stroke-linejoin="round"/>
<path d="M353.232 277.352L340.101 288.218" stroke="black" stroke-width="0.853263" stroke-miterlimit="10" stroke-linecap="round" stroke-linejoin="round"/>
<path d="M238.852 314.26H383.072V332.176H238.852V314.26Z" stroke="black" stroke-width="0.853263" stroke-miterlimit="10" stroke-linecap="round" stroke-linejoin="round"/>
</g>
<path d="M311.312 248.035C306.435 260.229 290.141 265.588 274.918 260.005C259.694 254.422 251.306 240.01 256.182 227.816C261.058 215.621 277.352 210.262 292.575 215.846C307.799 221.429 316.188 235.841 311.312 248.035Z" fill="#21A038"/>
<path d="M256.181 227.816C261.057 215.622 277.351 210.262 292.575 215.846C307.799 221.429 316.188 235.841 311.312 248.035C306.436 260.23 290.141 265.589 274.918 260.005C259.694 254.422 251.305 240.01 256.181 227.816Z" stroke="#111311" stroke-width="0.830991" stroke-miterlimit="10" stroke-linecap="round" stroke-linejoin="round"/>
<path d="M265.476 246.221C265.476 246.221 259.358 247.248 257.157 243.614C254.956 239.979 260.342 230.672 265.382 226.7C270.422 222.728 283.129 222.14 289.446 223.539C295.763 224.938 302.674 230.785 302.996 236.192C303.318 241.6 300.452 246.517 300.083 248.174C299.713 249.83 295.97 249.42 295.554 248.527C295.136 247.632 288.848 234.501 287.323 233.769C285.798 233.036 284.57 234.032 282.695 234.817C280.82 235.601 266.761 239.999 266.761 239.999L265.476 246.221Z" fill="#111311" stroke="#111311" stroke-width="0.830991" stroke-miterlimit="10" stroke-linecap="round" stroke-linejoin="round"/>
<path d="M268.146 383.648L268.012 365.923L259.266 386.463L259.266 386.465C257.508 388.856 255.388 391.961 254.273 394.433C252.16 399.122 257.351 415.245 258.056 413.683C258.759 412.119 264.363 391.669 264.363 391.669C264.363 391.669 265.363 388.162 265.524 385.34L268.146 383.648Z" fill="#9D9D9D" stroke="#111311" stroke-width="0.830991" stroke-miterlimit="10" stroke-linecap="round" stroke-linejoin="round"/>
<path d="M264.764 395.612C264.764 395.612 259.053 396.943 257.351 408.936C256.886 412.207 256.497 447.05 255.681 452.797L252.297 476.634L282.342 479.909L289.263 457.679L288.901 480.135L319.034 483.419C319.034 483.419 327.004 448.834 327.851 444.525C328.698 440.216 332.117 431.053 333.267 417.975C334.418 404.896 332.354 399.537 332.354 399.537L266.088 391.092L264.764 395.612Z" fill="#111311" stroke="#111311" stroke-width="0.830991" stroke-miterlimit="10" stroke-linecap="round" stroke-linejoin="round"/>
<path d="M285.545 277.181C285.545 277.181 269.741 288.112 266.214 291.195C262.557 294.392 261.114 314.06 263.248 327.956C265.382 341.852 266.724 363.121 266.332 367.348C265.941 371.574 263.04 396.785 263.04 396.785C263.04 396.785 286.647 409.831 302.333 408.988C318.022 408.144 329.865 402.611 329.865 402.611C329.865 402.611 333.531 359.251 334.867 349.791C336.203 340.332 338.609 308.788 338.136 297.636C337.663 286.484 331.522 279.194 326.367 277.988C321.21 276.783 301.721 273.718 301.721 273.718L285.545 277.181Z" fill="#9D9D9D" stroke="#111311" stroke-width="0.830991" stroke-miterlimit="10" stroke-linecap="round" stroke-linejoin="round"/>
<path d="M277.174 273.857C277.174 273.857 280.896 293.085 281.926 293.384C282.957 293.684 286.19 291.056 286.19 291.056L300.025 274.124L297.911 256.87C297.911 256.87 294.096 265.461 288.361 270.61C282.628 275.758 277.174 273.857 277.174 273.857Z" fill="#9D9D9D" stroke="#111311" stroke-width="0.830991" stroke-miterlimit="10" stroke-linecap="round" stroke-linejoin="round"/>
<path d="M289.899 271.41L279.599 283.981L277.026 273.706L289.899 271.41Z" fill="#111311" stroke="#111311" stroke-width="0.830991" stroke-miterlimit="10" stroke-linecap="round" stroke-linejoin="round"/>
<path d="M287.986 228.491C287.986 228.491 279.869 233.736 273.751 235.297C267.63 236.859 264.609 237.365 264.609 237.365C264.609 237.365 264.725 249.778 264.767 253.265C264.809 256.753 265.179 262.645 267.205 265.373C269.231 268.102 274.203 274.635 276.629 276.433C279.055 278.23 283.718 277.485 285.135 276.943C286.553 276.401 295.922 265.162 296.551 263.559C297.181 261.956 297.354 256.959 297.354 256.959C297.354 256.959 301.058 255.412 301.858 253.549C302.659 251.687 302.483 244.422 301.563 243.347C300.643 242.271 298.771 243.181 298.351 244.25C297.931 245.319 296.906 246.879 296.906 246.879C296.906 246.879 297.183 243.984 296.38 242.085C295.577 240.186 295.674 239.5 293.457 237.168C291.241 234.837 287.986 228.491 287.986 228.491Z" fill="#9D9D9D" stroke="#111311" stroke-width="0.830991" stroke-miterlimit="10" stroke-linecap="round" stroke-linejoin="round"/>
<path d="M275.273 254.398L275.143 258.203C275.143 258.203 279.574 258.547 281.894 256.538" stroke="#111311" stroke-width="0.830991" stroke-miterlimit="10" stroke-linecap="round" stroke-linejoin="round"/>
<path d="M272.251 261.784C272.251 261.784 275.312 263.261 280.488 262.265C285.664 261.27 287.383 257.757 287.383 257.757" stroke="#111311" stroke-width="0.830991" stroke-miterlimit="10" stroke-linecap="round" stroke-linejoin="round"/>
<path d="M273.348 244.975C273.348 244.975 267.773 242.343 265.572 245.65" stroke="#111311" stroke-width="0.830991" stroke-miterlimit="10" stroke-linecap="round" stroke-linejoin="round"/>
<path d="M279.575 243.545C279.575 243.545 283.958 240.053 287.845 242.14" stroke="#111311" stroke-width="0.830991" stroke-miterlimit="10" stroke-linecap="round" stroke-linejoin="round"/>
<path d="M272.086 250.1C272.347 251.204 272.118 252.2 271.575 252.321C271.034 252.442 270.381 251.644 270.12 250.539C269.861 249.433 270.088 248.439 270.63 248.317C271.174 248.197 271.825 248.994 272.086 250.1Z" fill="#111311"/>
<path d="M285.147 247.801C285.408 248.906 285.179 249.9 284.636 250.022C284.094 250.142 283.443 249.345 283.181 248.24C282.921 247.134 283.149 246.139 283.692 246.019C284.235 245.898 284.885 246.695 285.147 247.801Z" fill="#111311"/>
<path d="M311.257 300.263L316.641 344.134C316.641 344.134 315.762 346.156 315.984 347.454C316.206 348.751 316.26 349.817 316.26 349.817C316.26 349.817 310.807 366.171 306.639 376.094C302.471 386.017 289.537 407.255 289.587 409.806C289.638 412.356 284.686 430.887 285.755 431.855C286.824 432.824 289.412 434.388 290.201 434.477C290.989 434.565 294.483 435.383 295.666 435.516C296.849 435.649 301.217 435.928 302.236 434.346C303.254 432.764 303.201 431.698 301.96 431.983C300.719 432.267 298.718 432.254 298.718 432.254L298.159 430.494C298.159 430.494 300.15 423.296 299.911 417.754C299.671 412.213 299.535 410.289 299.535 410.289C299.535 410.289 330.018 370.666 332.095 362.84C334.171 355.014 336.956 346.42 337.501 342.452C338.047 338.484 339.012 302.325 338.374 298.224C337.737 294.123 337.691 290.088 334.995 286.391C332.298 282.694 330.128 282.45 328.55 282.273" fill="#9D9D9D"/>
<path d="M311.257 300.263L316.641 344.134C316.641 344.134 315.762 346.156 315.984 347.454C316.206 348.751 316.26 349.817 316.26 349.817C316.26 349.817 310.807 366.171 306.639 376.094C302.471 386.017 289.537 407.255 289.587 409.806C289.638 412.356 284.686 430.887 285.755 431.855C286.824 432.824 289.412 434.388 290.201 434.477C290.989 434.565 294.483 435.383 295.666 435.516C296.849 435.649 301.217 435.928 302.236 434.346C303.254 432.765 303.201 431.698 301.96 431.983C300.719 432.267 298.718 432.254 298.718 432.254L298.159 430.494C298.159 430.494 300.15 423.296 299.911 417.754C299.671 412.213 299.535 410.289 299.535 410.289C299.535 410.289 330.018 370.666 332.095 362.84C334.171 355.014 336.956 346.42 337.501 342.452C338.047 338.484 339.012 302.325 338.374 298.224C337.737 294.123 337.691 290.088 334.995 286.391C332.298 282.694 330.128 282.45 328.55 282.273" stroke="#111311" stroke-width="0.830991" stroke-miterlimit="10" stroke-linecap="round" stroke-linejoin="round"/>
<path d="M317.923 349.014C317.923 349.014 324.374 346.99 329.257 350.081" stroke="#111311" stroke-width="0.830991" stroke-miterlimit="10" stroke-linecap="round" stroke-linejoin="round"/>
<path d="M322.436 344.937C322.436 344.937 329.732 343.886 333.382 349.825" stroke="#111311" stroke-width="0.830991" stroke-miterlimit="10" stroke-linecap="round" stroke-linejoin="round"/>
<path d="M310.014 368.343C309.015 370.949 308.004 373.487 307.058 375.706C302.811 385.67 289.641 407.001 289.688 409.56C289.737 412.121 284.683 430.726 285.768 431.698C286.853 432.669 289.482 434.236 290.284 434.324C291.086 434.413 294.634 435.229 295.837 435.362C297.04 435.495 301.478 435.771 302.515 434.183C303.552 432.593 303.499 431.522 302.237 431.81C300.977 432.096 298.942 432.085 298.942 432.085L298.376 430.32C298.376 430.32 300.408 423.091 300.171 417.529C299.934 411.968 299.799 410.036 299.799 410.036C299.799 410.036 314.705 390.912 324.559 376.559C320.33 370.574 314.186 368.803 310.014 368.343Z" fill="#9D9D9D" stroke="#111311" stroke-width="0.830991" stroke-miterlimit="10" stroke-linecap="round" stroke-linejoin="round"/>
<path d="M294.423 430.839C294.423 430.839 296.201 432.846 296.823 433.491C297.445 434.136 297.6 434.73 298.904 435.037" fill="#9D9D9D"/>
<path d="M294.423 430.839C294.423 430.839 296.201 432.846 296.823 433.491C297.445 434.136 297.6 434.73 298.904 435.037" stroke="#111311" stroke-width="0.830991" stroke-miterlimit="10" stroke-linecap="round" stroke-linejoin="round"/>
<path d="M290.184 431.367C290.184 431.367 292.969 434.065 294.827 434.754L290.184 431.367Z" fill="#9D9D9D"/>
<path d="M290.184 431.367C290.184 431.367 292.969 434.065 294.827 434.754" stroke="#111311" stroke-width="0.830991" stroke-miterlimit="10" stroke-linecap="round" stroke-linejoin="round"/>
<path d="M286.83 430.467C286.83 430.467 288.014 432.55 289.515 433.457L286.83 430.467Z" fill="#9D9D9D"/>
<path d="M286.83 430.467C286.83 430.467 288.014 432.55 289.515 433.457" stroke="#111311" stroke-width="0.830991" stroke-miterlimit="10" stroke-linecap="round" stroke-linejoin="round"/>
<path d="M263.922 390.4C263.922 390.4 263.862 396.101 264.025 397.044C264.187 397.988 263.521 399.611 263.323 403.137C263.125 406.662 263.485 410.404 261.401 409.556C259.317 408.706 259.13 402.671 259.487 401.167C259.843 399.664 257.875 394.818 257.875 394.818" fill="#9D9D9D"/>
<path d="M263.922 390.4C263.922 390.4 263.862 396.101 264.025 397.044C264.187 397.988 263.521 399.611 263.323 403.137C263.125 406.662 263.485 410.404 261.401 409.556C259.317 408.706 259.13 402.671 259.487 401.167C259.843 399.664 257.875 394.818 257.875 394.818" stroke="#111311" stroke-width="0.830991" stroke-miterlimit="10" stroke-linecap="round" stroke-linejoin="round"/>
<path d="M225.42 361.423C223.783 356.851 214.938 295.316 214.938 295.316C210.844 303.756 203.686 346.625 203.686 346.625L202.681 369.629L201.846 373.878C206.424 371.253 217.465 366.257 223.355 374.888C223.514 374.478 223.636 374.131 223.713 373.856C225.298 368.187 227.057 365.996 225.42 361.423Z" fill="#21A038"/>
<path d="M225.42 361.423C223.783 356.851 214.938 295.316 214.938 295.316C210.844 303.756 203.686 346.625 203.686 346.625L202.681 369.629L201.846 373.878C206.424 371.253 217.465 366.257 223.355 374.888C223.514 374.478 223.636 374.131 223.713 373.856C225.298 368.187 227.057 365.996 225.42 361.423Z" stroke="#111311" stroke-width="0.89071" stroke-miterlimit="10" stroke-linecap="round" stroke-linejoin="round"/>
<path d="M220.214 366.647C221.338 366.955 222.414 367.382 223.397 367.961" stroke="#111311" stroke-width="0.89071" stroke-miterlimit="10" stroke-linecap="round" stroke-linejoin="round"/>
<path d="M204.199 367.037C204.199 367.037 210.096 365.393 216.126 365.944" stroke="#111311" stroke-width="0.89071" stroke-miterlimit="10" stroke-linecap="round" stroke-linejoin="round"/>
<path d="M222.634 364.486C222.634 364.486 218.068 360.838 213.915 361.759" stroke="#111311" stroke-width="0.89071" stroke-miterlimit="10" stroke-linecap="round" stroke-linejoin="round"/>
<path d="M109.152 475.173L115.941 428.901L122.284 403.757L196.729 408.092L201.075 426.951L198.095 484.125L160.577 480.606L158.159 442.325L155.681 445.756L150.782 478.873L109.152 475.173Z" fill="#111311" stroke="#111311" stroke-width="0.89071" stroke-miterlimit="10" stroke-linecap="round" stroke-linejoin="round"/>
<path d="M155.441 279.767C155.441 279.767 122.354 285.546 120.28 286.362C118.206 287.177 118.774 317.739 120.432 329.007C122.09 340.276 124.433 381.308 124.433 381.308L120.332 410.421C120.332 410.421 151.622 414.171 164.381 413.754C177.141 413.338 191.351 411.037 191.351 411.037C191.351 411.037 199 385.693 199.573 368.573C200.146 351.452 209.822 309.731 210.233 306.941C210.645 304.151 213.908 293.952 213.908 293.952C213.908 293.952 190.941 284.115 184.892 282.738C178.844 281.361 164.452 279.604 155.441 279.767Z" fill="#21A038" stroke="#111311" stroke-width="0.89071" stroke-miterlimit="10" stroke-linecap="round" stroke-linejoin="round"/>
<path d="M147 287.017C147 287.017 149.951 298.676 158.814 306.493" stroke="#111311" stroke-width="0.89071" stroke-miterlimit="10" stroke-linecap="round" stroke-linejoin="round"/>
<path d="M181.07 288.67C181.07 288.67 178.838 292.831 175.504 297.26" stroke="#111311" stroke-width="0.89071" stroke-miterlimit="10" stroke-linecap="round" stroke-linejoin="round"/>
<path d="M174.646 299.549L172.701 301.726" stroke="#111311" stroke-width="0.89071" stroke-miterlimit="10" stroke-linecap="round" stroke-linejoin="round"/>
<path d="M150.881 409.12C158.548 409.508 172.645 409.816 182.058 407.605" stroke="#111311" stroke-width="0.89071" stroke-miterlimit="10" stroke-linecap="round" stroke-linejoin="round"/>
<path d="M145.438 408.796C145.438 408.796 146.307 408.87 147.806 408.963" stroke="#111311" stroke-width="0.89071" stroke-miterlimit="10" stroke-linecap="round" stroke-linejoin="round"/>
<path d="M177.72 403.584C167.566 403.965 152.272 403.677 140.777 399.659" stroke="#111311" stroke-width="0.89071" stroke-miterlimit="10" stroke-linecap="round" stroke-linejoin="round"/>
<path d="M188.537 403.162C188.537 403.162 185.955 403.413 181.83 403.584" stroke="#111311" stroke-width="0.89071" stroke-miterlimit="10" stroke-linecap="round" stroke-linejoin="round"/>
<path d="M189.182 389.197C182.774 392.09 170.61 396.841 158.918 397.315" stroke="#111311" stroke-width="0.89071" stroke-miterlimit="10" stroke-linecap="round" stroke-linejoin="round"/>
<path d="M193.806 387.019C193.806 387.019 192.93 387.479 191.382 388.204" stroke="#111311" stroke-width="0.89071" stroke-miterlimit="10" stroke-linecap="round" stroke-linejoin="round"/>
<path d="M151.067 268.564L150.419 284.779C150.419 284.779 153.727 296.882 164.874 297.167C175.806 297.446 179.184 283.317 179.184 283.317L179.099 266.129C179.099 266.129 168.557 273.459 163.307 272.244C158.058 271.028 151.067 268.564 151.067 268.564Z" fill="#9D9D9D" stroke="#111311" stroke-width="0.89071" stroke-miterlimit="10" stroke-linecap="round" stroke-linejoin="round"/>
<path d="M141.821 248.852C141.821 248.852 140.178 246.075 138.403 248.281C136.627 250.486 137.606 256.945 140.146 258.557C142.685 260.169 143.401 260.236 143.401 260.236C143.401 260.236 145.689 266.818 147.084 268.822C148.479 270.825 159.221 280.698 162.007 281.46C164.793 282.22 168.971 281.739 170.774 280.16C172.578 278.582 179.09 267.208 180.222 264.443C181.356 261.678 181.566 261.074 181.821 259.35C182.076 257.626 182.174 256.138 182.174 256.138C182.174 256.138 185.551 252.085 186.298 248.66C187.046 245.235 186.594 242.57 184.88 241.91C183.167 241.249 180.715 244.764 180.715 244.764L177.083 225.198C177.083 225.198 175.702 219.824 174.006 219.041C172.31 218.257 159.326 218.661 153.62 220.496C147.914 222.333 142.308 224.303 141.568 226.855C140.829 229.408 141.821 248.852 141.821 248.852Z" fill="#9D9D9D" stroke="#111311" stroke-width="0.89071" stroke-miterlimit="10" stroke-linecap="round" stroke-linejoin="round"/>
<path d="M154.453 223.324C154.453 223.324 143.922 224.476 143.109 226.151C142.297 227.824 141.071 231.016 141.817 233.614C142.562 236.213 142.148 249.204 142.148 249.204C142.148 249.204 143.224 253.39 142.193 252.71C141.164 252.03 140.944 247.147 140.658 246.537C140.372 245.927 136.903 236.266 135.928 232.673C134.953 229.081 138.408 226.098 139.265 225.401C140.121 224.703 141.035 223.622 141.035 223.622C141.035 223.622 140.929 217.971 143.713 215.704C146.498 213.437 164.902 211.273 166.473 210.837C168.045 210.4 170.014 207.279 171.428 206.634C172.842 205.989 176.459 208.272 178.166 213.295C179.871 218.317 179.487 219.643 178.601 220.531L177.717 221.421C177.717 221.421 180.261 222.048 180.836 225.798C181.412 229.548 182.387 233.14 181.962 236.018C181.536 238.895 180.436 244.402 180.351 244.977C180.266 245.553 179.698 244.947 179.425 242.976C179.151 241.005 176.207 226.531 175.691 224.926C175.175 223.322 174.473 221.7 174.187 221.09C173.9 220.48 158.579 219.627 154.453 223.324Z" fill="#111311" stroke="#111311" stroke-width="0.89071" stroke-miterlimit="10" stroke-linecap="round" stroke-linejoin="round"/>
<path d="M162.235 281.4C165.037 282.163 169.238 281.68 171.052 280.095C172.866 278.509 179.414 267.086 180.554 264.309C181.693 261.531 181.904 260.924 182.161 259.192C182.417 257.461 182.517 255.965 182.517 255.965L181.443 244.025C181.336 244.16 181.249 244.273 181.183 244.361C181.021 248.002 180.681 255.03 180.444 256.023C180.123 257.372 178.465 258.721 176.992 258.833C175.517 258.946 168.853 257.193 165.822 257.159C162.791 257.126 161.668 258.148 159.208 259.173C156.749 260.196 151.638 262.725 150.385 262.984C149.132 263.243 146.983 262.164 146.208 260.837C145.432 259.511 142.787 248.777 142.787 248.777C142.704 249.442 141.885 250.651 141.885 250.651L143.526 260.084C143.526 260.084 145.827 266.695 147.23 268.707C148.632 270.72 159.433 280.636 162.235 281.4Z" fill="#111311"/>
<path d="M162.235 281.4C165.037 282.163 169.238 281.68 171.052 280.095C172.866 278.509 179.414 267.086 180.554 264.309C181.693 261.531 181.904 260.924 182.161 259.192C182.417 257.461 182.517 255.965 182.517 255.965L181.443 244.025C181.336 244.16 181.249 244.273 181.183 244.361C181.021 248.002 180.681 255.03 180.444 256.023C180.123 257.372 178.465 258.721 176.992 258.833C175.517 258.946 168.853 257.193 165.822 257.159C162.791 257.126 161.668 258.148 159.208 259.173C156.749 260.196 151.638 262.725 150.385 262.984C149.132 263.243 146.983 262.164 146.208 260.837C145.432 259.511 142.787 248.777 142.787 248.777C142.704 249.442 141.885 250.651 141.885 250.651L143.526 260.084C143.526 260.084 145.827 266.695 147.23 268.707C148.632 270.72 159.433 280.636 162.235 281.4Z" stroke="#111311" stroke-width="0.89071" stroke-miterlimit="10" stroke-linecap="round" stroke-linejoin="round"/>
<path d="M165.716 239.909C165.716 239.909 163.419 242.011 163.687 242.778C163.956 243.547 167.036 257.429 166.709 258.875C166.383 260.32 164.305 260.844 162.768 260.189C161.23 259.536 160.727 255.045 160.727 255.045" fill="#9D9D9D"/>
<path d="M165.716 239.909C165.716 239.909 163.419 242.011 163.687 242.778C163.956 243.547 167.036 257.429 166.709 258.875C166.383 260.32 164.305 260.844 162.768 260.189C161.23 259.536 160.727 255.045 160.727 255.045" stroke="#111311" stroke-width="0.89071" stroke-miterlimit="10" stroke-linecap="round" stroke-linejoin="round"/>
<path d="M167.855 238.916C167.855 238.916 172.558 236.423 176.161 238.775" stroke="#111311" stroke-width="2.67213" stroke-miterlimit="10" stroke-linecap="round" stroke-linejoin="round"/>
<path d="M156.18 240.429C156.18 240.429 149.631 238.073 146.216 242.987" stroke="#111311" stroke-width="2.67213" stroke-miterlimit="10" stroke-linecap="round" stroke-linejoin="round"/>
<path d="M154.824 246.527C154.961 247.565 154.555 248.482 153.92 248.575C153.284 248.667 152.658 247.899 152.521 246.861C152.384 245.823 152.79 244.906 153.425 244.814C154.061 244.721 154.688 245.489 154.824 246.527Z" fill="#111311"/>
<path d="M152.5 246.862C152.341 245.826 152.738 244.911 153.387 244.817C154.035 244.723 154.688 245.486 154.847 246.522C155.005 247.557 154.608 248.473 153.96 248.567C153.311 248.661 152.658 247.897 152.5 246.862Z" stroke="#111311" stroke-width="0.89071" stroke-miterlimit="10" stroke-linecap="round" stroke-linejoin="round"/>
<path d="M171.287 244.049C171.423 245.086 171.019 246.003 170.382 246.095C169.747 246.187 169.12 245.42 168.985 244.382C168.848 243.344 169.253 242.428 169.889 242.336C170.525 242.243 171.152 243.01 171.287 244.049Z" fill="#111311"/>
<path d="M168.964 244.387C168.806 243.352 169.203 242.436 169.851 242.342C170.499 242.248 171.153 243.012 171.311 244.047C171.469 245.083 171.072 245.998 170.424 246.092C169.776 246.186 169.122 245.423 168.964 244.387Z" stroke="#111311" stroke-width="0.89071" stroke-miterlimit="10" stroke-linecap="round" stroke-linejoin="round"/>
<path d="M157.54 265.474C157.54 265.474 165.891 268.158 171.459 262.976" stroke="#111311" stroke-width="0.89071" stroke-miterlimit="10" stroke-linecap="round" stroke-linejoin="round"/>
<path d="M224.719 373.844C224.685 373.969 224.638 374.112 224.587 374.264C224.638 374.113 224.685 373.969 224.719 373.844Z" stroke="#111311" stroke-width="0.89071" stroke-miterlimit="10" stroke-linecap="round" stroke-linejoin="round"/>
<path d="M224.299 374.226C218.296 365.541 207.02 370.581 202.345 373.227L197.483 394.263L195.931 398.16C195.931 398.16 186.922 406.207 185.693 407.91C184.464 409.613 182.716 410.864 181.412 411.752C180.108 412.64 177.484 413.202 177.114 414.38C176.745 415.558 180.513 416.519 181.758 416.029C183.003 415.54 186.366 412.621 186.366 412.621L183.865 417.642L198.096 425.851C198.096 425.851 199.544 421.339 200.343 418.584C201.141 415.829 202.69 409.306 203.059 408.127C203.419 406.979 221.974 380.774 224.496 373.702C224.438 373.864 224.374 374.036 224.299 374.226Z" fill="#9D9D9D" stroke="#111311" stroke-width="0.89071" stroke-miterlimit="10" stroke-linecap="round" stroke-linejoin="round"/>
<path d="M119.347 285.84C119.347 285.84 114.978 289.248 113.663 292.948C112.348 296.647 93.5941 342.727 89.6848 349.601C85.7763 356.474 84.5526 362.194 85.8632 365.136C87.1746 368.077 114.3 393.02 114.3 393.02C114.3 393.02 116.108 404.46 116.656 407.33C117.203 410.199 118.224 415.124 118.224 415.124L130.899 410.491C130.899 410.491 132.811 413.288 134.163 414.625C135.516 415.96 137.337 416.737 137.893 415.582C138.449 414.427 136.653 410.836 136.653 410.836C136.653 410.836 135.857 408.346 135.956 406.343C136.056 404.34 133.716 400.496 132.832 398.601C131.949 396.706 123.556 389.269 123.556 389.269L108.557 356.824L119.514 328.315C119.514 328.315 117.01 293.869 119.347 285.84Z" fill="#9D9D9D" stroke="#111311" stroke-width="0.89071" stroke-miterlimit="10" stroke-linecap="round" stroke-linejoin="round"/>
<path d="M107.761 356.692L119.205 332.767C119.205 332.767 116.128 293.857 118.445 285.843C118.445 285.843 114.107 289.245 112.803 292.936C111.499 296.627 92.8989 342.617 89.0213 349.476C85.1437 356.336 83.9302 362.045 85.2334 364.981C85.6024 365.815 87.7367 369.554 92.4421 372.942C94.5878 369.65 100.043 362.045 109.857 362.279L107.761 356.692Z" fill="#21A038" stroke="#111311" stroke-width="0.89071" stroke-miterlimit="10" stroke-linecap="round" stroke-linejoin="round"/>
<path d="M94.0103 353.752C94.0103 353.752 100.065 353.453 105.26 356.312" stroke="#111311" stroke-width="0.89071" stroke-miterlimit="10" stroke-linecap="round" stroke-linejoin="round"/>
<path d="M102.141 352.798C102.141 352.798 106.912 354.654 108.422 356.653" stroke="#111311" stroke-width="0.89071" stroke-miterlimit="10" stroke-linecap="round" stroke-linejoin="round"/>
<path d="M203.683 393.385C203.683 393.385 189.477 422.686 191.347 439.389C193.217 456.09 194.301 476.246 194.301 476.246L247.968 481.294C247.968 481.294 256.493 461.672 257.288 449.491C258.081 437.31 258.35 423.595 258.35 423.595L259.842 388.455L206.352 383.423L203.683 393.385Z" fill="#111311" stroke="#111311" stroke-width="0.853263" stroke-miterlimit="10" stroke-linecap="round" stroke-linejoin="round"/>
<path d="M225.892 425.746C225.892 425.746 232.225 445.902 234.207 461.399C236.189 476.896 235.684 479.613 235.684 479.613" stroke="#111311" stroke-width="0.853263" stroke-miterlimit="10" stroke-linecap="round" stroke-linejoin="round"/>
<path d="M233.578 443.012C233.578 443.012 244.029 435.625 248.106 426.018" stroke="#111311" stroke-width="0.853263" stroke-miterlimit="10" stroke-linecap="round" stroke-linejoin="round"/>
<path d="M244.854 305.743L218.802 311.981C218.802 311.981 225.949 327.651 226.322 349.161C226.694 370.671 222.798 392.148 222.798 392.148C222.798 392.148 228.814 396.789 241.314 396.491C253.815 396.191 258.392 389.404 258.392 389.404C258.392 389.404 261.891 353.821 259.054 339.297C256.216 324.774 244.854 305.743 244.854 305.743Z" fill="#21A038" stroke="#111311" stroke-width="0.853263" stroke-miterlimit="10" stroke-linecap="round" stroke-linejoin="round"/>
<path d="M213.486 239.3C213.486 239.3 207.458 238.231 204.006 245.123C200.555 252.015 190.251 276.22 191.013 281.83C191.776 287.44 194.754 289.566 195.295 295.657C195.834 301.75 192.496 305.129 192.496 305.129C192.496 305.129 194.328 308.657 199.756 309.334C205.186 310.012 213.916 306.3 219.53 305.485C225.145 304.67 237.31 304.638 244.988 304.183C252.665 303.729 254.989 298.074 254.989 298.074C254.989 298.074 249.798 298.09 249.889 294.743C249.982 291.395 255.695 279.345 255.003 270.553C254.313 261.762 243.364 252.007 238.61 247.197C233.857 242.388 229.321 238.438 223.732 237.745C218.143 237.052 214.716 237.234 213.486 239.3Z" fill="#111311" stroke="#111311" stroke-width="0.853263" stroke-miterlimit="10" stroke-linecap="round" stroke-linejoin="round"/>
<path d="M206.614 269.905C206.614 269.905 200.885 277.998 200.593 285.617C200.302 293.235 205.717 294.255 206.931 293.374" stroke="#111311" stroke-width="0.853263" stroke-miterlimit="10" stroke-linecap="round" stroke-linejoin="round"/>
<path d="M239.2 260.905C239.2 260.905 249.677 273.233 250.397 284.965" stroke="#111311" stroke-width="0.853263" stroke-miterlimit="10" stroke-linecap="round" stroke-linejoin="round"/>
<path d="M218.76 290.25L222.248 306.043C222.248 306.043 231.852 320.712 236.98 319.251C242.108 317.789 239.079 303.729 239.148 301.793C239.218 299.857 238.871 290.287 238.871 290.287C238.871 290.287 234.805 295.557 232.614 295.351C230.422 295.145 218.76 290.25 218.76 290.25Z" fill="#9D9D9D" stroke="#111311" stroke-width="0.853263" stroke-miterlimit="10" stroke-linecap="round" stroke-linejoin="round"/>
<path d="M218.877 249.975C218.877 249.975 208.016 265.792 207.734 268.069C207.451 270.347 212.477 284.999 213.989 287.977C215.502 290.955 227.595 298.296 230.448 298.741C233.302 299.187 236.59 296.129 237.593 293.563C238.595 291 242.355 284.08 242.663 280.06C242.778 278.559 239.65 261.269 238.237 260.25C236.824 259.23 218.877 249.975 218.877 249.975Z" fill="#9D9D9D" stroke="#111311" stroke-width="0.853263" stroke-miterlimit="10" stroke-linecap="round" stroke-linejoin="round"/>
<path d="M221.656 273.761C221.656 273.761 218.489 271.958 216.264 274.757" stroke="#111311" stroke-width="0.853263" stroke-miterlimit="10" stroke-linecap="round" stroke-linejoin="round"/>
<path d="M230.774 271.493C230.774 271.493 231.784 267.975 235.799 269.545" stroke="#111311" stroke-width="0.853263" stroke-miterlimit="10" stroke-linecap="round" stroke-linejoin="round"/>
<path d="M220.113 268.892C220.113 268.892 214.889 267.864 212.956 271.409" stroke="#111311" stroke-width="0.853263" stroke-miterlimit="10" stroke-linecap="round" stroke-linejoin="round"/>
<path d="M227.534 266.312C227.534 266.312 230.749 262.681 234.609 264.592" stroke="#111311" stroke-width="0.853263" stroke-miterlimit="10" stroke-linecap="round" stroke-linejoin="round"/>
<path d="M230.955 279.107C230.955 279.107 229.012 281.471 226.564 280.444" stroke="#111311" stroke-width="0.853263" stroke-miterlimit="10" stroke-linecap="round" stroke-linejoin="round"/>
<path d="M235.684 281.037C235.684 281.037 231.811 285.724 222.753 285.578C222.753 285.578 228.149 290.549 231.769 289.714C235.391 288.88 235.684 281.037 235.684 281.037Z" fill="#9D9D9D" stroke="#111311" stroke-width="0.853263" stroke-miterlimit="10" stroke-linecap="round" stroke-linejoin="round"/>
<path d="M209.648 276.861C209.648 276.861 206.92 275.204 206.014 278.856C205.109 282.508 212.425 284.48 212.425 284.48L209.648 276.861Z" fill="#9D9D9D" stroke="#111311" stroke-width="0.853263" stroke-miterlimit="10" stroke-linecap="round" stroke-linejoin="round"/>
<path d="M240.399 266.971C240.399 266.971 240.579 265.494 241.985 266.033C243.393 266.571 245.378 271.198 244.864 273.767C244.348 276.336 242.628 276.195 242.628 276.195L240.399 266.971Z" fill="#9D9D9D" stroke="#111311" stroke-width="0.853263" stroke-miterlimit="10" stroke-linecap="round" stroke-linejoin="round"/>
<path d="M214.304 304.371C214.304 304.371 193.364 316.023 192.245 318.367C191.125 320.713 196.418 393.916 196.418 393.916C196.418 393.916 172.437 436.106 176.13 444.168C179.823 452.231 199.889 461.515 200.71 462.995C201.532 464.475 214.55 427.363 219.924 413.341C225.299 399.318 234.392 373.916 236.215 361.654C238.039 349.392 235.232 332.656 234.234 327.131C233.237 321.604 231.404 311.968 231.404 311.968L214.304 304.371Z" fill="#111311" stroke="#111311" stroke-width="0.853263" stroke-miterlimit="10" stroke-linecap="round" stroke-linejoin="round"/>
<path d="M219.13 296.789C219.13 296.789 231.829 311.959 231.058 312.575C230.289 313.19 220.789 324.377 220.789 324.377L210.372 304.998L219.13 296.789Z" fill="#111311" stroke="#111311" stroke-width="0.853263" stroke-miterlimit="10" stroke-linecap="round" stroke-linejoin="round"/>
<path d="M242.423 312.965C242.423 312.965 252.433 329.338 256.052 340.718C259.67 352.099 259.626 371.708 258.703 379.323L256.962 393.69C256.962 393.69 257.663 430.531 258.575 436.748C259.487 442.964 260.758 454.469 260.758 454.469C260.758 454.469 262.819 453.967 263.577 446.335C264.334 438.703 265.454 407.466 264.639 394.954C263.823 382.443 265.334 361.975 264.293 358.197L263.251 354.418L281.494 350.744C281.494 350.744 271.789 339.244 270.16 322.908C269.419 315.475 266.288 311.235 264.335 309.471C262.384 307.707 246.951 304.47 244.295 304.39C241.64 304.309 242.423 312.965 242.423 312.965Z" fill="#111311" stroke="#111311" stroke-width="0.853263" stroke-miterlimit="10" stroke-linecap="round" stroke-linejoin="round"/>
<path d="M240.563 313.087C240.563 313.087 241.35 310.864 242.319 311.309C243.288 311.753 251.261 317.626 252.169 317.18C253.079 316.736 244.96 303.784 243.322 301.863C241.684 299.942 239.958 298.72 239.958 298.72L239.545 302.039L240.563 313.087Z" fill="#111311" stroke="#111311" stroke-width="0.853263" stroke-miterlimit="10" stroke-linecap="round" stroke-linejoin="round"/>
<path d="M257.247 314.902C257.247 314.902 261.116 335.034 260.987 343.536L257.247 314.902Z" fill="#9D9D9D"/>
<path d="M257.247 314.902C257.247 314.902 261.116 335.034 260.987 343.536" stroke="#111311" stroke-width="0.853263" stroke-miterlimit="10" stroke-linecap="round" stroke-linejoin="round"/>
<path d="M256.477 354.566C256.477 354.566 261.701 340.613 262.635 339.834C263.569 339.054 270.704 336.691 271.273 336.6C271.843 336.51 275.85 340.207 276.451 340.987C277.052 341.765 279.84 344.048 279.146 345.138C278.452 346.23 276.764 345.204 275.798 345.113C274.833 345.023 269.907 347.594 269.578 347.996C269.248 348.399 267.286 351.826 266.61 352.773C265.934 353.721 256.477 354.566 256.477 354.566Z" fill="#9D9D9D" stroke="#111311" stroke-width="0.853263" stroke-miterlimit="10" stroke-linecap="round" stroke-linejoin="round"/>
<path d="M277.617 342.343C277.617 342.343 275.881 341.41 275.298 341.643C274.715 341.876 267.836 344.398 267.412 344.839C266.987 345.28 266.437 345.996 266.437 345.996" stroke="#111311" stroke-width="0.853263" stroke-miterlimit="10" stroke-linecap="round" stroke-linejoin="round"/>
<path d="M264.913 343.673C264.913 343.673 266.198 342.255 267.376 341.693C268.557 341.13 272.585 339.972 273.066 339.826C273.547 339.679 275.261 340.034 275.261 340.034" stroke="#111311" stroke-width="0.853263" stroke-miterlimit="10" stroke-linecap="round" stroke-linejoin="round"/>
<path d="M272.582 338.083C272.582 338.083 264.929 340.147 264.389 340.768L263.851 341.391" stroke="#111311" stroke-width="0.853263" stroke-miterlimit="10" stroke-linecap="round" stroke-linejoin="round"/>
<path d="M264.181 352.817C264.181 352.817 271.717 348.407 274.923 347.295C278.129 346.184 284.037 349.388 285.021 351.069C286.006 352.75 286.59 360.395 285.729 365.963C284.867 371.531 284.395 373.958 280.537 374.831C276.679 375.704 271.539 375.926 271.011 376.053C270.485 376.18 271.3 365.49 268.814 359.431C266.329 353.372 264.181 352.817 264.181 352.817Z" fill="#111311" stroke="#111311" stroke-width="0.853263" stroke-miterlimit="10" stroke-linecap="round" stroke-linejoin="round"/>
<path d="M254.875 355.267C254.875 355.267 254.093 375.285 255.135 377.85C256.177 380.415 259.603 380.21 263.239 379.671C266.875 379.132 272.234 378.404 272.554 377.199C272.873 375.996 274.151 364.308 272.908 359.257C271.664 354.205 268.903 350.42 266.297 350.88C263.689 351.339 255.242 352.306 254.875 355.267Z" fill="#111311" stroke="#111311" stroke-width="0.853263" stroke-miterlimit="10" stroke-linecap="round" stroke-linejoin="round"/>
<path d="M235.122 385.82L258.035 370.103L249.794 363.18L232.184 368.696C232.184 368.696 235.456 381.164 235.122 385.82Z" fill="#9D9D9D" stroke="#111311" stroke-width="0.853263" stroke-miterlimit="10" stroke-linecap="round" stroke-linejoin="round"/>
<path d="M223.483 394.842C223.483 394.842 225.662 395.048 228.969 392.784C232.278 390.52 235.21 389.079 235.283 381.786C235.357 374.491 233.316 363.131 231.858 361.561C230.4 359.991 219.71 360.699 219.35 361.38C218.991 362.063 225.977 375.751 225.732 383.315C225.486 390.88 223.483 394.842 223.483 394.842Z" fill="#111311" stroke="#111311" stroke-width="0.853263" stroke-miterlimit="10" stroke-linecap="round" stroke-linejoin="round"/>
<path d="M195.539 319.046C195.539 319.046 194.381 315.846 191.552 318.269C188.721 320.694 186.434 328.067 187.086 337.294C187.738 346.52 187.957 384.92 189.288 389.771C190.618 394.622 191.846 399.178 195.233 399.641C198.622 400.105 209.982 399.604 217.994 397.21C226.005 394.817 226.749 385.436 225.159 377.123C223.567 368.81 219.621 361.706 217.006 359.454C214.391 357.202 213.206 354.513 210.927 348.426C208.647 342.339 203.654 326.975 202.01 324.67" fill="#111311"/>
<path d="M195.539 319.046C195.539 319.046 194.381 315.846 191.552 318.269C188.721 320.694 186.434 328.067 187.086 337.294C187.738 346.52 187.957 384.92 189.288 389.771C190.618 394.622 191.846 399.178 195.233 399.641C198.622 400.105 209.982 399.604 217.994 397.21C226.005 394.817 226.749 385.436 225.159 377.123C223.567 368.81 219.621 361.706 217.006 359.454C214.391 357.202 213.206 354.513 210.927 348.426C208.647 342.339 203.654 326.975 202.01 324.67" stroke="#111311" stroke-width="0.853263" stroke-miterlimit="10" stroke-linecap="round" stroke-linejoin="round"/>
<path d="M202.474 373.01C201.699 373.58 200.907 374.084 200.104 374.49" stroke="#111311" stroke-width="0.853263" stroke-miterlimit="10" stroke-linecap="round" stroke-linejoin="round"/>
<path d="M212.432 361.842C212.432 361.842 208.956 367.305 204.487 371.37" stroke="#111311" stroke-width="0.853263" stroke-miterlimit="10" stroke-linecap="round" stroke-linejoin="round"/>
<path d="M257.986 357.221C257.986 357.221 237.264 357.305 231.99 356.655C226.716 356.006 219.552 352.382 219.552 352.382C219.552 352.382 210.98 347.596 209.154 346.392C207.329 345.188 202.734 344.751 201.409 345.213C200.084 345.675 197.014 347.736 197.254 349.229C197.494 350.722 199.289 349.864 200.214 349.217C201.139 348.57 202.602 348.12 202.602 348.12L206.935 349.562L207.627 350.806C207.627 350.806 201.358 351.385 200.469 351.741C199.579 352.098 196.536 357.396 195.976 358.52C195.415 359.643 195.851 359.537 196.686 359.616L197.522 359.696C197.522 359.696 196.819 361.982 197.619 362.352C198.419 362.722 199.605 362.247 199.605 362.247C199.605 362.247 200.455 363.358 200.873 363.398C201.291 363.438 205.91 361.377 206.66 361.007C207.409 360.638 213.238 362.516 214.769 362.662C216.303 362.808 222.169 363.22 222.169 363.22C222.169 363.22 249.267 374.331 252.957 375.271C256.646 376.21 259.171 376.304 261.097 372.076C263.023 367.847 261.118 358.107 257.986 357.221Z" fill="#9D9D9D" stroke="#111311" stroke-width="0.853263" stroke-miterlimit="10" stroke-linecap="round" stroke-linejoin="round"/>
<path d="M199.487 361.81C199.487 361.81 203.751 357.87 204.79 357.388C205.828 356.907 207.851 356.374 207.851 356.374" stroke="#111311" stroke-width="0.853263" stroke-miterlimit="10" stroke-linecap="round" stroke-linejoin="round"/>
<path d="M197.344 359.315L201.801 354.958L206.161 353.632" stroke="#111311" stroke-width="0.853263" stroke-miterlimit="10" stroke-linecap="round" stroke-linejoin="round"/>
<path d="M96.5558 241.639C96.5558 241.639 97.7137 242.334 99.5678 243.029C101.421 243.724 106.053 245.346 108.139 247.662C110.223 249.979 109.529 255.539 109.529 255.539" stroke="#111311" stroke-width="0.853263" stroke-miterlimit="10" stroke-linecap="round" stroke-linejoin="round"/>
<path d="M70.1086 260.908L68.2935 264.802" stroke="#111311" stroke-width="0.853263" stroke-miterlimit="10" stroke-linecap="round" stroke-linejoin="round"/>
<path d="M55.4788 248.682C55.4788 248.682 54.2151 254.65 52.9386 256.017C51.6621 257.385 49.6339 259.001 50.3071 261.985C50.9812 264.969 54.9139 266.833 54.902 267.331C54.89 267.828 47.7704 269.196 47.9641 271.434C48.1586 273.672 50.0819 276.407 50.0819 276.407C50.0819 276.407 44.8172 278.148 44.3718 281.131C43.9264 284.115 45.7191 287.099 45.6927 288.219C45.6654 289.337 42.4964 291.824 43.4435 293.813C44.3889 295.802 46.633 295.554 46.749 295.927C46.8634 296.3 45.4572 297.916 45.4333 298.911C45.4085 299.905 46.1338 300.775 46.1338 300.775H88.1562L76.2378 238.612L60.4243 244.703L55.4788 248.682Z" fill="#21A038" stroke="#111311" stroke-width="0.853263" stroke-miterlimit="10" stroke-linecap="round" stroke-linejoin="round"/>
<path d="M112.408 389.755C112.408 389.755 121.075 409.48 122.213 414.322C123.35 419.164 123.89 440.718 122.085 449.111C118.799 464.397 109.383 478.879 109.383 478.879H61.6479L51.8047 432.917L66.1805 388.14L112.408 389.755Z" fill="#9D9D9D" stroke="#111311" stroke-width="0.853263" stroke-miterlimit="10" stroke-linecap="round" stroke-linejoin="round"/>
<path d="M104.491 427.771L100.473 438.172L102.387 478.656" stroke="#111311" stroke-width="0.853263" stroke-miterlimit="10" stroke-linecap="round" stroke-linejoin="round"/>
<path d="M111.649 376.664C111.649 376.664 120.083 383.836 121.093 386.527C122.104 389.216 122.749 406.97 123.214 410.018C123.678 413.067 121.635 415.935 121.635 415.935L114.364 397.824C114.364 397.824 113.663 389.755 113.497 389.216C113.33 388.678 112 384.374 112 384.374L111.649 376.664Z" fill="#9D9D9D" stroke="#111311" stroke-width="0.853263" stroke-miterlimit="10" stroke-linecap="round" stroke-linejoin="round"/>
<path d="M118.601 393.162C118.601 393.162 118.702 396.389 119.004 398.721C119.306 401.052 120.277 405.356 118.279 406.432" fill="#9D9D9D"/>
<path d="M118.601 393.162C118.601 393.162 118.702 396.389 119.004 398.721C119.306 401.052 120.277 405.356 118.279 406.432" stroke="#111311" stroke-width="0.853263" stroke-miterlimit="10" stroke-linecap="round" stroke-linejoin="round"/>
<path d="M81.0444 300.27L92.5123 300.628L100.71 300.899L110.245 308.878C110.245 308.878 118.246 348.688 118.902 351.199C119.558 353.709 112.107 372.539 111.526 374.332C110.944 376.125 112.407 389.754 112.407 389.754C112.407 389.754 108.738 393.161 96.8639 394.775C84.9891 396.388 71.3027 391.368 71.3027 391.368C71.3027 391.368 80.3055 367.697 82.2279 354.964C82.2279 354.964 83.9003 330.397 83.3525 323.404C82.8047 316.409 81.0444 300.27 81.0444 300.27Z" fill="#21A038" stroke="#111311" stroke-width="0.853263" stroke-miterlimit="10" stroke-linecap="round" stroke-linejoin="round"/>
<path d="M109.652 359.195L91.0869 368.611" stroke="#111311" stroke-width="0.853263" stroke-miterlimit="10" stroke-linecap="round" stroke-linejoin="round"/>
<path d="M108.575 362.424L99.966 366.728" stroke="#111311" stroke-width="0.853263" stroke-miterlimit="10" stroke-linecap="round" stroke-linejoin="round"/>
<path d="M77.9036 287.089C77.9036 287.089 84.8013 310.97 85.693 315.198C86.5855 319.425 95.4168 324.397 100.829 321.662C106.241 318.927 104.503 313.705 103.588 310.473C102.671 307.24 100.711 300.899 100.711 300.899L102.798 281.504C102.798 281.504 96.2462 290.207 93.8596 291.201C91.473 292.196 77.9036 287.089 77.9036 287.089Z" fill="#9D9D9D" stroke="#111311" stroke-width="0.853263" stroke-miterlimit="10" stroke-linecap="round" stroke-linejoin="round"/>
<path d="M90.8083 293.371L99.847 302.093L102.067 283.381L90.8083 293.371Z" fill="#111311" stroke="#111311" stroke-width="0.853263" stroke-miterlimit="10" stroke-linecap="round" stroke-linejoin="round"/>
<path d="M100.164 301.142L99.6888 309.704" stroke="#111311" stroke-width="0.853263" stroke-miterlimit="10" stroke-linecap="round" stroke-linejoin="round"/>
<path d="M100.773 298.926C100.773 298.926 113.546 335.418 114.96 343.667C116.374 351.916 116.689 353.71 116.799 356.579C116.909 359.447 114.604 365.725 114.604 365.725C114.604 365.725 123.661 354.606 123.717 344.923C123.772 335.238 117.194 305.989 114.124 304.216C101.92 297.168 100.773 298.926 100.773 298.926Z" fill="#111311" stroke="#111311" stroke-width="0.853263" stroke-miterlimit="10" stroke-linecap="round" stroke-linejoin="round"/>
<path d="M112.63 316.918C112.63 316.918 118.084 333.332 117.43 345.575" stroke="#111311" stroke-width="0.853263" stroke-miterlimit="10" stroke-linecap="round" stroke-linejoin="round"/>
<path d="M69.2899 258.504L75.0844 250.299L101.9 277.526C101.9 277.526 100.27 293.44 100.258 293.938C100.246 294.435 101.92 297.17 101.92 297.17C101.92 297.17 102.652 297.792 103.252 298.662C103.852 299.533 103.231 299.533 103.077 300.776C102.922 302.019 103.777 302.641 104.384 303.263C104.99 303.884 106.467 304.506 107.325 305.004C108.183 305.501 107.41 306.619 106.762 307.739C106.113 308.857 105.191 310.972 106.256 313.209C107.321 315.447 107.951 315.073 109.774 316.814C111.596 318.555 108.947 320.172 108.947 320.172C108.947 320.172 110.323 319.798 111.451 319.426C112.579 319.052 113.107 317.809 112.631 316.939C112.154 316.068 111.229 313.209 111.614 312.711C111.999 312.215 115.522 310.474 116.55 309.106C117.578 307.739 116.465 307.49 117.347 306.993C118.23 306.495 119.998 305.376 120.413 303.635C120.828 301.895 118.766 299.781 119.402 299.16C120.039 298.538 122.43 294.71 122.458 293.592C122.484 292.472 121.068 290.58 121.068 290.58C121.068 290.58 121.991 289.835 122.576 286.23C123.161 282.625 120.328 281.505 120.128 279.516C119.928 277.526 122.854 274.792 122.898 267.829C122.942 260.867 111.431 258.754 111.079 257.882C110.728 257.012 111.134 255.644 110.93 253.78C110.727 251.915 106.206 248.683 106.206 248.683C106.206 248.683 106.747 246.817 107.151 245.574C107.554 244.331 106.96 243.212 104.77 241.222C102.58 239.234 91.9901 229.909 87.5387 228.914C83.0863 227.919 75.6339 232.768 74.7508 233.266C73.8685 233.763 66.824 232.023 64.6687 233.763C62.5125 235.503 61.8188 238.488 61.2906 239.731C60.7633 240.974 58.8989 240.974 57.7495 242.217C56.6002 243.461 54.7222 254.277 54.7222 254.277" fill="#21A038"/>
<path d="M69.2899 258.504L75.0844 250.299L101.9 277.526C101.9 277.526 100.27 293.44 100.258 293.938C100.246 294.435 101.92 297.17 101.92 297.17C101.92 297.17 102.652 297.792 103.252 298.662C103.852 299.533 103.231 299.533 103.077 300.776C102.922 302.019 103.777 302.641 104.384 303.263C104.99 303.884 106.467 304.506 107.325 305.004C108.183 305.501 107.41 306.619 106.762 307.739C106.113 308.857 105.191 310.972 106.256 313.209C107.321 315.447 107.951 315.073 109.774 316.814C111.596 318.555 108.947 320.172 108.947 320.172C108.947 320.172 110.323 319.798 111.451 319.426C112.579 319.052 113.107 317.809 112.631 316.939C112.154 316.068 111.229 313.209 111.614 312.711C111.999 312.215 115.522 310.474 116.55 309.106C117.578 307.739 116.465 307.49 117.347 306.993C118.23 306.495 119.998 305.376 120.413 303.635C120.828 301.895 118.766 299.781 119.402 299.16C120.039 298.538 122.43 294.71 122.458 293.592C122.484 292.472 121.068 290.58 121.068 290.58C121.068 290.58 121.991 289.835 122.576 286.23C123.161 282.625 120.328 281.505 120.128 279.516C119.928 277.526 122.854 274.792 122.898 267.829C122.942 260.867 111.431 258.754 111.079 257.882C110.728 257.012 111.134 255.644 110.93 253.78C110.727 251.915 106.206 248.683 106.206 248.683C106.206 248.683 106.747 246.817 107.151 245.574C107.554 244.331 106.96 243.212 104.77 241.222C102.58 239.234 91.9901 229.909 87.5387 228.914C83.0863 227.919 75.6339 232.768 74.7508 233.266C73.8685 233.763 66.824 232.023 64.6687 233.763C62.5125 235.503 61.8188 238.488 61.2906 239.731C60.7633 240.974 58.8989 240.974 57.7495 242.217C56.6002 243.461 54.7222 254.277 54.7222 254.277" stroke="#111311" stroke-width="0.853263" stroke-miterlimit="10" stroke-linecap="round" stroke-linejoin="round"/>
<path d="M80.3242 296.236C80.3242 296.236 93.3049 341.873 93.8783 347.791C94.4526 353.709 74.1458 392.444 70.004 400.513C65.8631 408.583 56.839 433.15 55.3791 441.579C53.9192 450.007 52.7792 460.048 52.7792 460.048C52.7792 460.048 41.9666 454.849 34.9025 450.366C27.8383 445.883 26.6437 443.371 27.2035 442.476C27.7632 441.579 30.7232 430.461 30.7232 430.461C30.7232 430.461 24.6121 423.646 24.9876 422.928C25.3639 422.211 39.2533 374.511 39.2533 374.511C39.2533 374.511 42.9086 297.76 44.3438 297.76C45.7782 297.76 80.3242 296.236 80.3242 296.236Z" fill="#111311" stroke="#111311" stroke-width="0.853263" stroke-miterlimit="10" stroke-linecap="round" stroke-linejoin="round"/>
<path d="M79.0135 318.029L93.8785 347.793" stroke="#111311" stroke-width="0.853263" stroke-miterlimit="10" stroke-linecap="round" stroke-linejoin="round"/>
<path d="M52.9386 298.297C52.9386 298.297 42.231 296.145 40.3683 299.014C38.5048 301.884 22.0837 350.481 21.0786 354.964C20.0726 359.447 50.8293 392.622 50.8293 392.622L66.6872 382.042L47.9598 355.681L58.1981 318.023" fill="#111311"/>
<path d="M52.9386 298.297C52.9386 298.297 42.231 296.145 40.3683 299.014C38.5048 301.884 22.0837 350.481 21.0786 354.964C20.0726 359.447 50.8293 392.622 50.8293 392.622L66.6872 382.042L47.9598 355.681L58.1981 318.023" stroke="#111311" stroke-width="0.853263" stroke-miterlimit="10" stroke-linecap="round" stroke-linejoin="round"/>
<path d="M55.5091 329.728L47.8647 353.356L64.9676 378.994" stroke="#111311" stroke-width="0.853263" stroke-miterlimit="10" stroke-linecap="round" stroke-linejoin="round"/>
<path d="M57.594 322.315L56.4985 325.809" stroke="#111311" stroke-width="0.853263" stroke-miterlimit="10" stroke-linecap="round" stroke-linejoin="round"/>
<path d="M64.886 378.992L47.7629 393.25L53.5884 400.326L71.604 386.437L64.886 378.992Z" fill="#9D9D9D" stroke="#111311" stroke-width="0.853263" stroke-miterlimit="10" stroke-linecap="round" stroke-linejoin="round"/>
<path d="M70.3316 387.064C70.3316 387.064 84.6536 402.844 86.2501 403.562C87.8465 404.28 90.9917 407.687 91.8492 409.3C92.7067 410.914 93.9098 413.067 95.1428 413.962C96.3766 414.859 96.5302 415.935 94.3646 416.474C92.1999 417.011 90.2229 417.191 89.0283 414.68C87.8346 412.17 85.9181 409.838 85.9181 409.838L73.6815 418.984C73.6815 418.984 71.0475 409.3 70.7369 407.328C70.4254 405.356 69.7864 402.127 69.7864 402.127L61.5498 394.237L70.3316 387.064Z" fill="#9D9D9D" stroke="#111311" stroke-width="0.853263" stroke-miterlimit="10" stroke-linecap="round" stroke-linejoin="round"/>
<path d="M50.2647 285.233C50.2647 285.233 49.0778 293.188 49.757 295.926C50.4763 298.822 56.3049 298.303 55.1095 302.149C54.7238 303.389 53.2178 304.712 53.6888 306.119C54.1717 307.56 56.0686 307.642 57.1223 308.46C59.0584 309.964 58.3655 311.578 59.0234 313.707C59.4995 315.245 61.1378 315.777 61.5806 316.997C62.1062 318.442 61.0985 319.345 62.7027 320.916C65.4954 323.652 67.597 324.148 67.9758 323.9C68.3547 323.652 67.6243 323.03 69.3854 322.159C71.1474 321.289 74.5434 319.673 73.9555 318.305C73.3761 316.959 72.7968 315.613 72.7831 315.58C73.6031 317.468 76.1492 315.561 76.8447 314.567C78.4334 312.299 76.0042 309.856 76.2883 307.405C76.6023 304.688 79.6621 303.288 80.0043 300.55C80.3388 297.869 77.5546 296.023 78.1612 293.564C78.4368 292.445 78.5913 291.201 78.5913 291.201C78.5913 291.201 77.7815 288.715 76.5588 287.844C75.3369 286.974 74.924 283.493 74.8301 282.25" fill="#21A038"/>
<path d="M50.2647 285.233C50.2647 285.233 49.0778 293.188 49.757 295.926C50.4763 298.822 56.3049 298.303 55.1095 302.149C54.7238 303.389 53.2178 304.712 53.6888 306.119C54.1717 307.56 56.0686 307.642 57.1223 308.46C59.0584 309.964 58.3655 311.578 59.0234 313.707C59.4995 315.245 61.1378 315.777 61.5806 316.997C62.1062 318.442 61.0985 319.345 62.7027 320.916C65.4954 323.652 67.597 324.148 67.9758 323.9C68.3547 323.652 67.6243 323.03 69.3854 322.159C71.1474 321.289 74.5434 319.673 73.9555 318.305C73.3761 316.959 72.7968 315.613 72.7831 315.58C73.6031 317.468 76.1492 315.561 76.8447 314.567C78.4334 312.299 76.0042 309.856 76.2883 307.405C76.6023 304.688 79.6621 303.288 80.0043 300.55C80.3388 297.869 77.5546 296.023 78.1612 293.564C78.4368 292.445 78.5913 291.201 78.5913 291.201C78.5913 291.201 77.7815 288.715 76.5588 287.844C75.3369 286.974 74.924 283.493 74.8301 282.25" stroke="#111311" stroke-width="0.853263" stroke-miterlimit="10" stroke-linecap="round" stroke-linejoin="round"/>
<path d="M72.6303 245.813C72.6303 245.813 62.5788 260.427 63.3476 263.519C64.1156 266.611 71.7855 286.426 74.4076 288.393C77.0297 290.36 87.5982 294.998 91.1077 295.139C94.6172 295.279 97.1804 293.874 98.6446 291.485C100.108 289.096 105.683 279.399 105.733 277.291C105.785 275.183 101.286 254.953 100.45 254.672C99.6139 254.391 72.6303 245.813 72.6303 245.813Z" fill="#9D9D9D" stroke="black" stroke-width="0.853263" stroke-miterlimit="10" stroke-linecap="round" stroke-linejoin="round"/>
<path d="M87.99 261.34C87.99 261.34 87.7007 265.241 88.0599 266.508C88.4192 267.776 91.7213 272.359 91.7989 273.139C91.8783 273.919 90.5916 274.699 88.8193 275.382" stroke="#111311" stroke-width="0.853263" stroke-miterlimit="10" stroke-linecap="round" stroke-linejoin="round"/>
<path d="M65.304 269.559C65.304 269.559 63.1047 267.588 61.9259 269.978C60.7471 272.368 61.6544 275.602 65.3812 278.276C69.1088 280.95 69.9509 280.951 69.9509 280.951L65.304 269.559Z" fill="#9D9D9D" stroke="#111311" stroke-width="0.853263" stroke-miterlimit="10" stroke-linecap="round" stroke-linejoin="round"/>
<path d="M102.085 259.724C102.085 259.724 104.076 258.74 104.999 261.27C105.921 263.799 104.5 270.265 104.5 270.265L102.085 259.724Z" fill="#9D9D9D" stroke="#111311" stroke-width="0.853263" stroke-miterlimit="10" stroke-linecap="round" stroke-linejoin="round"/>
<path d="M83.0264 280.3C83.0264 280.3 89.4992 279.958 91.0683 279.196C92.6367 278.431 95.3273 275.228 95.3273 275.228C95.3273 275.228 95.5001 282.42 92.1072 283.567C89.7228 284.373 83.0264 280.3 83.0264 280.3Z" fill="#9D9D9D" stroke="#111311" stroke-width="0.853263" stroke-miterlimit="10" stroke-linecap="round" stroke-linejoin="round"/>
<path d="M72.42 265.142C72.42 265.142 72.8304 261.363 79.3251 260.791L72.42 265.142Z" fill="#9D9D9D"/>
<path d="M72.42 265.142C72.42 265.142 72.8304 261.363 79.3251 260.791" stroke="#111311" stroke-width="0.853263" stroke-miterlimit="10" stroke-linecap="round" stroke-linejoin="round"/>
<path d="M87.8945 258.2C87.8945 258.2 91.8851 254.622 96.1276 258.901L87.8945 258.2Z" fill="#9D9D9D"/>
<path d="M87.8945 258.2C87.8945 258.2 91.8851 254.622 96.1276 258.901" stroke="#111311" stroke-width="0.853263" stroke-miterlimit="10" stroke-linecap="round" stroke-linejoin="round"/>
<path d="M80.3615 267.057C80.7216 268.217 80.3906 269.348 79.6205 269.584C78.8506 269.819 77.9337 269.07 77.5729 267.911C77.2125 266.75 77.5435 265.619 78.3136 265.383C79.0835 265.148 80.0004 265.897 80.3615 267.057Z" fill="#111311"/>
<path d="M93.6276 263.381C93.9884 264.542 93.6563 265.672 92.8866 265.908C92.1172 266.144 91.2003 265.394 90.8395 264.234C90.4781 263.074 90.8099 261.943 91.5796 261.707C92.3493 261.472 93.2668 262.22 93.6276 263.381Z" fill="#111311"/>
</g>
<defs>
<filter id="filter0_f_9_729" x="-383" y="-50.1494" width="822.15" height="822.149" filterUnits="userSpaceOnUse" color-interpolation-filters="sRGB">
<feFlood flood-opacity="0" result="BackgroundImageFix"/>
<feBlend mode="normal" in="SourceGraphic" in2="BackgroundImageFix" result="shape"/>
<feGaussianBlur stdDeviation="163" result="effect1_foregroundBlur_9_729"/>
</filter>
<filter id="filter1_f_9_729" x="-101.95" y="-256" width="993.236" height="993.236" filterUnits="userSpaceOnUse" color-interpolation-filters="sRGB">
<feFlood flood-opacity="0" result="BackgroundImageFix"/>
<feBlend mode="normal" in="SourceGraphic" in2="BackgroundImageFix" result="shape"/>
<feGaussianBlur stdDeviation="163" result="effect1_foregroundBlur_9_729"/>
</filter>
<filter id="filter2_f_9_729" x="-96.1067" y="37.4109" width="559.994" height="559.994" filterUnits="userSpaceOnUse" color-interpolation-filters="sRGB">
<feFlood flood-opacity="0" result="BackgroundImageFix"/>
<feBlend mode="normal" in="SourceGraphic" in2="BackgroundImageFix" result="shape"/>
<feGaussianBlur stdDeviation="100" result="effect1_foregroundBlur_9_729"/>
</filter>
<clipPath id="clip0_9_729">
<rect width="426.632" height="386" fill="white" transform="translate(-29 88)"/>
</clipPath>
</defs>
</svg>
